<?xml version="1.0" encoding="utf-8"?>
<!-- Generator: Adobe Illustrator 16.0.4, SVG Export Plug-In . SVG Version: 6.00 Build 0)  -->
<!DOCTYPE svg PUBLIC "-//W3C//DTD SVG 1.1//EN" "http://www.w3.org/Graphics/SVG/1.1/DTD/svg11.dtd">
<svg version="1.1" id="Layer_1" xmlns="http://www.w3.org/2000/svg" xmlns:xlink="http://www.w3.org/1999/xlink" x="0px" y="0px"
	 width="50px" height="50px" viewBox="0 0 50 50" enable-background="new 0 0 50 50" xml:space="preserve">
<path d="M38.897,37.682l-0.865-4.869c-0.229-1.295-1.421-2.522-2.711-2.797l-6.451-1.361c1.214-1.176,2.147-2.807,2.767-4.445
	c0.798-0.291,1.603-1.002,1.833-1.931c0.31-1.229-0.016-2.328-0.78-2.807v-0.867c0.697-2.1,1.062-5.533-2.103-7.381
	c-1.417-0.828-2.593-0.881-3.481-0.592c-0.137-0.359,0.275-0.881,0.275-0.881c-0.729-0.025-1.113,0.363-1.271,0.582
	c-0.974-0.447-2.248-0.639-3.878-0.297c-5.232,1.098-5.9,7.951-4.943,9.453c-0.747,0.481-1.064,1.567-0.759,2.787
	c0.233,0.932,1.042,1.646,1.843,1.934c0.609,1.641,1.536,3.272,2.748,4.448l-6.442,1.356c-1.289,0.272-2.478,1.502-2.708,2.797
	l-0.868,4.871c-0.12,0.677,0.041,1.315,0.452,1.808c0.411,0.489,1.014,0.76,1.699,0.76h23.493c0.686,0,1.29-0.27,1.701-0.76
	C38.857,39,39.019,38.357,38.897,37.682z M37.681,38.848c-0.218,0.26-0.549,0.402-0.935,0.402h-4.567v-1.164h5.73
	C37.913,38.373,37.853,38.643,37.681,38.848z M13.253,39.25c-0.384,0-0.715-0.143-0.933-0.402c-0.172-0.205-0.233-0.475-0.229-0.762
	h5.729v1.164H13.253z M18.82,39.25v-2.854c0-0.277-0.224-0.5-0.5-0.5c-0.276,0-0.5,0.223-0.5,0.5v0.688h-5.597l0.73-4.099
	c0.159-0.893,1.043-1.807,1.93-1.994l4.56-0.961c1.482,1.468,3.494,2.312,5.59,2.312c2.116,0,4.085-0.817,5.583-2.299l4.498,0.948
	c0.889,0.188,1.773,1.103,1.932,1.994l0.729,4.099h-5.597v-0.688c0-0.277-0.224-0.5-0.5-0.5s-0.5,0.223-0.5,0.5v2.854H18.82z
	 M25,30.383c1.062,0,2.02-0.348,2.873-0.916l1.536,0.324c-1.233,1.004-2.753,1.553-4.374,1.553c-1.604,0-3.151-0.566-4.382-1.566
	l1.466-0.309C22.971,30.037,23.932,30.383,25,30.383z M19.205,23.23c-0.425,0.092-1.406-0.443-1.601-1.219
	c-0.199-0.793-0.01-1.533,0.421-1.654c0.127-0.035,0.26-0.008,0.393,0.062v-1.184c0.002-0.004,0.005-0.006,0.007-0.011
	c-0.003-0.016-0.005-0.038-0.007-0.057v-0.404c0.106-1.004,1.054-2.909,6.28-1.196c1.799,0.59,2.909-0.345,3.47-1.584
	c1.774,0.196,2.958,2.213,3.413,3.455v0.981c0.064-0.035,0.132-0.062,0.197-0.072c-0.002,0.009-0.001,0.025-0.004,0.031
	c0.015,0.019,0.041,0.006,0.077-0.029c0.041,0,0.082-0.006,0.122,0.007c0.431,0.121,0.62,0.86,0.421,1.653
	c-0.192,0.771-1.167,1.302-1.59,1.222c-0.565,1.721-1.693,3.922-3.3,5.135c-0.193,0.146-0.396,0.271-0.603,0.387
	c-0.292,0.162-0.598,0.293-0.917,0.381c-0.315,0.086-0.645,0.139-0.986,0.139c-0.347,0-0.68-0.051-1-0.139
	c-0.321-0.088-0.628-0.217-0.921-0.377c-0.208-0.115-0.41-0.242-0.603-0.387C20.878,27.17,19.772,24.994,19.205,23.23z"/>
</svg>
