<?xml version="1.0" encoding="utf-8"?>
<!-- Generator: Adobe Illustrator 16.0.4, SVG Export Plug-In . SVG Version: 6.00 Build 0)  -->
<!DOCTYPE svg PUBLIC "-//W3C//DTD SVG 1.1//EN" "http://www.w3.org/Graphics/SVG/1.1/DTD/svg11.dtd">
<svg version="1.1" id="Capa_1" xmlns="http://www.w3.org/2000/svg" xmlns:xlink="http://www.w3.org/1999/xlink" x="0px" y="0px"
	 width="612px" height="792px" viewBox="0 0 612 792" enable-background="new 0 0 612 792" xml:space="preserve">
<path d="M566.528,597.115c-1.596-2.789-3.984-7.371-7.172-13.746l-20.32-40.043V433.953c0-2.789-0.896-5.18-2.689-7.172
	s-4.084-2.988-6.873-2.988H369.898c-2.789,0-5.181,0.996-7.172,2.988c-1.992,1.992-2.988,4.383-2.988,7.172v53.787h-36.456V367.611
	h92.039c12.75,0,14.939-8.566,6.572-25.699c-1.193-2.789-3.586-7.371-7.172-13.746L395,288.123V178.752
	c0-2.789-0.996-5.18-2.988-7.172c-1.992-1.992-4.383-2.988-7.172-2.988H225.267c-2.789,0-5.08,0.996-6.873,2.988
	c-1.793,1.992-2.689,4.383-2.689,7.172v109.371l-20.32,40.043l-1.793,3.586c-1.992,4.383-3.486,7.57-4.482,9.562
	c-0.996,1.991-2.191,4.78-3.586,8.366s-2.092,6.275-2.092,8.068s0.299,3.586,0.896,5.379c0.597,1.793,1.992,3.088,4.184,3.885
	c2.192,0.797,5.08,0.996,8.666,0.599h90.246V487.74h-35.262v-53.789c0-2.789-0.896-5.18-2.689-7.172s-4.084-2.988-6.873-2.988
	H83.024c-2.789,0-5.18,0.996-7.172,2.988c-1.992,1.992-2.988,4.383-2.988,7.172v109.371l-19.723,40.043
	c-0.398,0.797-1.195,2.189-2.391,4.184c-1.992,3.984-3.486,7.072-4.482,9.264c-0.996,2.192-2.191,4.98-3.586,8.367
	c-1.395,3.389-2.092,5.979-2.092,7.771s0.299,3.686,0.896,5.678c0.597,1.992,1.992,3.287,4.184,3.885
	c2.192,0.6,5.08,0.896,8.666,0.896h218.145c13.148,0,15.539-8.768,7.172-26.297c-1.594-2.789-3.984-7.371-7.172-13.746
	l-20.32-40.043V523.6h107.578v19.725l-19.724,40.043c-0.397,0.797-1.195,2.189-2.392,4.184c-1.992,3.984-3.485,7.072-4.481,9.266
	c-0.996,2.19-2.19,4.979-3.586,8.365c-1.396,3.389-2.093,5.979-2.093,7.771s0.3,3.686,0.896,5.678
	c0.598,1.992,1.992,3.287,4.185,3.885c2.192,0.6,5.08,0.896,8.666,0.896h218.146C572.503,623.412,574.895,614.645,566.528,597.115z
	 M222.876,523.6H102.149v-71.719h120.727V523.6z M244.392,268.4v-71.718h121.324V268.4H244.392z M509.751,523.6H389.023v-71.719
	h120.728V523.6z"/>
</svg>
