<?xml version="1.0" encoding="utf-8"?>
<!-- Generator: Adobe Illustrator 15.0.0, SVG Export Plug-In . SVG Version: 6.00 Build 0)  -->
<!DOCTYPE svg PUBLIC "-//W3C//DTD SVG 1.1//EN" "http://www.w3.org/Graphics/SVG/1.1/DTD/svg11.dtd">
<svg version="1.1" id="Layer_1" xmlns="http://www.w3.org/2000/svg" xmlns:xlink="http://www.w3.org/1999/xlink" x="0px" y="0px"
	 width="26px" height="26px" viewBox="0 0 26 26" enable-background="new 0 0 26 26" xml:space="preserve">
<g>
	<g>
		<g>
			<path fill="#050505" d="M14.268,24.507h-2.434c-0.464,0-0.598,0-1.862-3.128l-0.843-0.343c-2.598,1.179-2.91,1.179-3.044,1.179
				c-0.172,0-0.365-0.075-0.486-0.196l-1.721-1.685c-0.343-0.338-0.431-0.425,0.934-3.521L4.472,16.01
				c-3.212-1.15-3.212-1.289-3.212-1.769v-2.385c0-0.477,0-0.599,3.201-1.838l0.34-0.805C3.36,6.175,3.459,6.077,3.805,5.737
				l1.724-1.685c0.121-0.119,0.314-0.193,0.484-0.193c0.125,0,0.45,0,3.092,1.115l0.838-0.341c1.175-3.141,1.324-3.141,1.789-3.141
				h2.434c0.463,0,0.598,0,1.861,3.13l0.842,0.34c2.596-1.176,2.908-1.176,3.044-1.176c0.171,0,0.363,0.074,0.484,0.192l1.725,1.683
				c0.336,0.331,0.431,0.425-0.934,3.523l0.339,0.808c3.213,1.147,3.213,1.285,3.213,1.764v2.384c0,0.478-0.001,0.601-3.203,1.841
				l-0.338,0.805c1.442,3.035,1.342,3.134,0.999,3.475l-1.728,1.688c-0.122,0.119-0.314,0.193-0.484,0.193l0,0
				c-0.123,0-0.446,0-3.088-1.117l-0.842,0.341C14.881,24.507,14.744,24.507,14.268,24.507z M12.184,23.205h1.725
				c0.23-0.492,0.673-1.604,1.029-2.562c0.063-0.171,0.196-0.308,0.365-0.376l1.357-0.55c0.159-0.064,0.34-0.063,0.499,0.005
				c0.976,0.415,2.129,0.879,2.651,1.055l1.208-1.184c-0.194-0.512-0.684-1.596-1.119-2.509c-0.079-0.167-0.084-0.361-0.013-0.533
				l0.559-1.328c0.069-0.163,0.201-0.292,0.366-0.354c0.983-0.38,2.127-0.849,2.628-1.087v-1.656
				c-0.507-0.226-1.642-0.656-2.618-1.003c-0.173-0.061-0.312-0.191-0.383-0.361l-0.559-1.33c-0.069-0.166-0.068-0.353,0.005-0.517
				c0.418-0.943,0.884-2.058,1.067-2.577l-1.209-1.181c-0.518,0.187-1.641,0.671-2.589,1.104c-0.161,0.074-0.349,0.079-0.514,0.011
				l-1.357-0.548c-0.163-0.066-0.295-0.197-0.36-0.361c-0.387-0.963-0.864-2.083-1.108-2.571h-1.724
				c-0.231,0.493-0.673,1.605-1.028,2.562C11,5.526,10.866,5.663,10.697,5.731l-1.353,0.55c-0.161,0.065-0.34,0.064-0.5-0.004
				C7.868,5.862,6.711,5.398,6.19,5.225L4.982,6.406c0.195,0.513,0.682,1.597,1.118,2.512c0.08,0.167,0.083,0.361,0.012,0.533
				l-0.562,1.328c-0.069,0.163-0.2,0.291-0.365,0.354c-0.983,0.379-2.125,0.846-2.625,1.084v1.657
				c0.505,0.228,1.641,0.659,2.618,1.007c0.172,0.062,0.311,0.193,0.381,0.36l0.558,1.327c0.07,0.165,0.067,0.351-0.004,0.515
				c-0.418,0.944-0.884,2.059-1.067,2.577l1.208,1.182c0.517-0.188,1.64-0.672,2.589-1.104c0.162-0.074,0.348-0.078,0.514-0.012
				l1.357,0.551c0.165,0.066,0.294,0.196,0.359,0.36C11.462,21.6,11.94,22.719,12.184,23.205z M13,17.13
				c-2.319,0-4.207-1.854-4.207-4.13c0-2.275,1.888-4.127,4.207-4.127c2.318,0,4.205,1.852,4.205,4.127
				C17.205,15.276,15.318,17.13,13,17.13z M13,10.174c-1.602,0-2.905,1.268-2.905,2.826c0,1.561,1.303,2.829,2.905,2.829
				c1.602,0,2.904-1.269,2.904-2.829C15.904,11.441,14.602,10.174,13,10.174z"/>
		</g>
	</g>
</g>
</svg>
